<svg width="1821" height="1441" viewBox="0 0 1821 1441" fill="none" xmlns="http://www.w3.org/2000/svg">
<path d="M1140.25 846.73C1137.59 875.837 1147 905.323 1167.02 926.85C1187.12 948.377 1215.49 959.747 1241.21 969.904C1269.27 980.895 1293.7 989.839 1319.94 1005.38C1344.97 1020.16 1367.12 1038.5 1385.63 1061.17C1422.35 1106.07 1441.04 1163.03 1438.07 1220.94C1435.09 1278.86 1410.67 1333.6 1369.55 1374.52C1328.72 1415.19 1273.99 1438.9 1216.37 1440.87C1158.75 1442.84 1102.53 1422.92 1059.01 1385.13C1035.86 1364.15 1015.54 1340.25 998.557 1314.03C972.919 1146.21 1022.68 970.434 1140.25 846.73Z" fill="#85A8FF"/>
<path d="M1248.53 760.614C1276.75 744.166 1303.15 732.569 1333.87 721.729C1363.45 711.421 1393.56 702.855 1423.98 695.2C1454.32 687.468 1484.89 680.949 1515.53 674.355C1546.1 667.836 1576.52 661.469 1606.1 650.251C1750.98 594.69 1838.74 445.594 1817.57 290.509C1796.33 135.5 1671.94 15.9648 1517.5 2.09358C1447.34 -4.12194 1379.61 12.5538 1316.95 41.8123C1254.45 70.9191 1197.26 112.305 1147.5 159.68C1047 255.186 972.661 377.829 927.378 508.355C882.07 640.451 864.41 780.441 875.495 919.641C880.805 988.618 893.245 1058.13 913.118 1124.53C932.536 1189.64 960.677 1256.87 998.527 1313.87C982.067 1206.82 996.404 1097.31 1039.87 998.093C1083.25 899.554 1155.24 815.038 1248.53 760.614Z" fill="#0057CC"/>
<path d="M604.14 855.088C594.368 843.852 583.743 833.386 572.359 823.783C586.619 848.418 588.06 876.463 582.068 903.372C575.632 930.015 563.352 954.896 546.114 976.215C528.784 997.352 508.738 1016.11 486.495 1032C467.304 1046.4 439.239 1064.67 421.869 1081.88C397.008 1106.6 381.039 1138.85 376.455 1173.6C371.872 1208.35 378.933 1243.64 396.534 1273.95C413.897 1304.19 440.937 1327.7 473.299 1340.71C505.661 1353.71 541.463 1355.46 574.938 1345.66C612.863 1334.44 645.1 1309.28 670.662 1280.47C696.452 1251.29 717.463 1216.65 734.074 1181.63C729.934 1061.03 684.006 945.603 604.14 855.088Z" fill="#85A8FF"/>
<path d="M279.977 182.453C385.183 182.377 487.279 241.349 561.235 307.522C639.741 377.787 700.498 467.306 740.548 564.632C780.749 662.412 800.168 768.228 799.409 873.892C798.65 976.524 778.626 1087.8 734.177 1181.64C730.046 1060.98 684.119 945.51 604.243 854.942C590.672 839.143 575.238 825.043 558.277 812.949C541.144 801.211 522.523 791.805 502.905 784.98C464.524 771.26 421.137 764.817 381.239 760.421C340.051 755.721 298.712 752.992 257.601 746.853C215.427 740.561 177.577 731.238 139.955 709.181C86.5277 677.755 44.8834 629.693 21.4016 572.358C-2.08023 515.022 -6.10458 451.574 9.94506 391.734C25.5925 332 60.5498 279.105 109.383 241.273C158.215 203.44 218.188 182.713 279.977 182.453Z" fill="#0057CC"/>
</svg>
