<svg width="269" height="345" viewBox="0 0 269 345" fill="none" xmlns="http://www.w3.org/2000/svg">
<path d="M187.037 176.416C174.287 176.416 163.957 166.087 163.957 153.336C163.957 151.991 164.071 150.674 164.299 149.393L109.103 117.61C105.087 121.002 99.8942 123.048 94.2278 123.048C81.4773 123.048 71.1429 112.714 71.1429 99.9681C71.1429 87.2222 81.4773 76.8878 94.2278 76.8878C106.978 76.8878 117.313 87.2222 117.313 99.9681C117.313 101.436 117.162 102.872 116.898 104.267L171.893 135.931C175.946 132.398 181.243 130.256 187.037 130.256C199.778 130.256 210.113 140.59 210.113 153.336C210.113 166.087 199.778 176.416 187.037 176.416ZM117.03 207.069C117.03 219.815 106.7 230.149 93.9498 230.149C81.2084 230.149 70.874 219.815 70.874 207.069C70.874 194.318 81.2084 183.984 93.9498 183.984C99.68 183.984 104.913 186.076 108.948 189.532L149.187 166.406C150.905 171.37 153.577 175.892 156.973 179.758L116.661 202.929C116.898 204.274 117.03 205.655 117.03 207.069ZM255.813 66.2114L146.215 3.58492C138.752 -0.677396 129.589 -0.677396 122.127 3.58492L12.5371 66.2114C4.9698 70.533 0.301758 78.5836 0.301758 87.2906V214.686C0.301758 223.357 4.92877 231.375 12.4414 235.711L201.11 344.612L201.141 267.261L255.891 235.711C263.412 231.375 268.044 223.357 268.044 214.677V87.2906C268.044 78.5836 263.376 70.533 255.813 66.2114Z" fill="white"/>
</svg>
