<svg width="108" height="108" viewBox="0 0 108 108" fill="none" xmlns="http://www.w3.org/2000/svg">
<path fill-rule="evenodd" clip-rule="evenodd" d="M53.9458 107.122C83.5268 107.122 107.507 83.142 107.507 53.561C107.507 23.98 83.5268 0 53.9468 0C24.3638 0 0.383789 23.98 0.383789 53.561C0.383789 83.142 24.3648 107.122 53.9458 107.122Z" fill="#DE5833"/>
<path fill-rule="evenodd" clip-rule="evenodd" d="M61.4777 93.5213C61.4777 93.1033 61.5808 93.0083 60.2508 90.3563C56.7158 83.2773 53.1628 73.2972 54.7788 66.8612C55.0728 65.6912 51.4488 23.5572 48.8868 22.2002C46.0388 20.6822 42.5358 18.2752 39.3308 17.7402C37.7048 17.4802 35.5728 17.6022 33.9058 17.8272C33.6098 17.8672 33.5978 18.3992 33.8808 18.4952C34.9748 18.8652 36.3038 19.5092 37.0868 20.4832C37.2348 20.6672 37.0358 20.9572 36.7998 20.9652C36.0618 20.9932 34.7228 21.3023 32.9558 22.8033C32.7518 22.9763 32.9208 23.2982 33.1838 23.2462C36.9808 22.4962 40.8578 22.8663 43.1438 24.9423C43.2918 25.0773 43.2138 25.3192 43.0208 25.3722C23.1898 30.7592 27.1168 48.0093 32.3958 69.1763C37.0498 87.8423 38.8308 93.9863 39.4078 95.9033C39.4381 96.0085 39.492 96.1055 39.5655 96.1868C39.639 96.2681 39.7301 96.3315 39.8318 96.3723C46.6818 99.0693 61.4777 99.1773 61.4777 94.5673V93.5213Z" fill="#DDDDDD"/>
<path d="M64.198 97.4999C61.792 98.4409 57.084 98.8599 54.365 98.8599C50.377 98.8599 44.635 98.2319 42.544 97.2899C41.251 93.3139 37.384 80.9869 33.566 65.3339L33.192 63.8039L33.189 63.7919C28.649 45.2499 24.941 30.1049 45.263 25.3469C45.448 25.3039 45.539 25.0819 45.416 24.9359C43.085 22.1699 38.716 21.2629 33.194 23.1679C32.967 23.2469 32.77 23.0179 32.911 22.8239C33.994 21.3309 36.111 20.1839 37.155 19.6799C37.371 19.5759 37.358 19.2599 37.13 19.1889C36.0967 18.8649 35.0422 18.6133 33.974 18.4359C33.664 18.3859 33.636 17.8559 33.947 17.8129C41.777 16.7599 49.953 19.1109 54.056 24.2789C54.095 24.3278 54.1498 24.3617 54.211 24.3749C69.235 27.6009 70.311 51.3519 68.58 52.4339C68.239 52.6469 67.146 52.5239 65.703 52.3639C59.857 51.7089 48.281 50.4139 57.835 68.2199C57.929 68.3959 57.805 68.6289 57.607 68.6599C52.219 69.4969 59.124 86.3789 64.198 97.4999Z" fill="white"/>
<path d="M70.9191 75.9027C69.7751 75.3727 65.3771 78.5267 62.4581 80.9477C61.8481 80.0847 60.6981 79.4577 58.1031 79.9077C55.8331 80.3037 54.5791 80.8507 54.0191 81.7947C50.4351 80.4357 44.4051 78.3387 42.9491 80.3647C41.3561 82.5787 43.3461 93.0517 45.4611 94.4117C46.5651 95.1217 51.8471 91.7267 54.6051 89.3857C55.0501 90.0127 55.7671 90.3717 57.2391 90.3377C59.4671 90.2857 63.0801 89.7677 63.6401 88.7297C63.6741 88.6667 63.7041 88.5927 63.7291 88.5077C66.5641 89.5677 71.5531 90.6877 72.6681 90.5217C75.5731 90.0847 72.2631 76.5257 70.9191 75.9027Z" fill="#3CA82B"/>
<path d="M62.7253 81.2601C62.8463 81.4741 62.9423 81.7001 63.0253 81.9301C63.4293 83.0601 64.0873 86.6561 63.5893 87.5441C63.0913 88.4321 59.8573 88.8611 57.8623 88.8951C55.8673 88.9291 55.4183 88.2001 55.0143 87.0701C54.6903 86.1661 54.5313 84.0401 54.5353 82.8231C54.4533 81.0171 55.1133 80.3831 58.1623 79.8891C60.4193 79.5241 61.6123 79.9491 62.3003 80.6751C65.5043 78.2851 70.8493 74.9101 71.3703 75.5271C73.9703 78.6021 74.2983 85.9211 73.7353 88.8671C73.5513 89.8291 64.9443 87.9121 64.9443 86.8741C64.9443 82.5631 63.8253 81.3811 62.7253 81.2601ZM43.8703 79.9131C44.5763 78.7971 50.2923 80.1851 53.4303 81.5811C53.4303 81.5811 52.7863 84.5031 53.8123 87.9451C54.1123 88.9521 46.5923 93.4331 45.6113 92.6621C44.4773 91.7711 42.3893 82.2581 43.8713 79.9121L43.8703 79.9131Z" fill="#4CBA3C"/>
<path fill-rule="evenodd" clip-rule="evenodd" d="M46.6405 57.2473C47.1025 55.2353 49.2574 51.4453 56.9504 51.5373C60.8404 51.5213 65.6724 51.5363 68.8764 51.1723C72.5226 50.768 76.1018 49.8976 79.5265 48.5823C82.8575 47.3123 84.0395 47.5943 84.4535 48.3553C84.9095 49.1903 84.3725 50.6333 83.2085 51.9613C80.9855 54.4973 76.9894 56.4633 69.9314 57.0463C62.8734 57.6293 58.1974 55.7363 56.1854 58.8183C55.3174 60.1483 55.9885 63.2813 62.8135 64.2683C72.0365 65.5983 79.6114 62.6643 80.5474 64.4363C81.4834 66.2083 76.0924 69.8163 66.8544 69.8913C57.6154 69.9673 51.8455 66.6573 49.7995 65.0113C47.2025 62.9243 46.0425 59.8793 46.6405 57.2473Z" fill="#FFCC33"/>
<g opacity="0.8">
<path d="M58.4038 35.2567C58.9198 34.4127 60.0618 33.7617 61.9318 33.7617C63.8018 33.7617 64.6818 34.5057 65.2908 35.3347C65.4148 35.5047 65.2268 35.7027 65.0348 35.6197L64.8948 35.5587C64.2108 35.2597 63.3708 34.8927 61.9318 34.8727C60.3938 34.8507 59.4238 35.2357 58.8118 35.5677C58.6068 35.6797 58.2818 35.4567 58.4038 35.2567ZM37.3508 36.3357C39.1668 35.5767 40.5938 35.6757 41.6028 35.9137C41.8158 35.9637 41.9628 35.7357 41.7928 35.5987C41.0098 34.9667 39.2578 34.1827 36.9718 35.0347C34.9328 35.7947 33.9718 37.3747 33.9658 38.4137C33.9648 38.6587 34.4688 38.6787 34.5988 38.4717C34.9508 37.9117 35.5358 37.0947 37.3508 36.3357Z" fill="#14307E"/>
<path fill-rule="evenodd" clip-rule="evenodd" d="M63.5205 46.7979C61.9145 46.7979 60.6125 45.4989 60.6125 43.9009C60.6125 42.3029 61.9145 41.0039 63.5205 41.0039C65.1255 41.0039 66.4275 42.3029 66.4275 43.9009C66.4275 45.4989 65.1255 46.7979 63.5205 46.7979ZM65.5675 42.9409C65.5675 42.7413 65.4882 42.5499 65.3471 42.4088C65.206 42.2677 65.0146 42.1884 64.815 42.1884C64.6154 42.1884 64.424 42.2677 64.2829 42.4088C64.1418 42.5499 64.0625 42.7413 64.0625 42.9409C64.0625 43.1405 64.1418 43.3319 64.2829 43.473C64.424 43.6141 64.6154 43.6934 64.815 43.6934C65.0146 43.6934 65.206 43.6141 65.3471 43.473C65.4882 43.3319 65.5675 43.1405 65.5675 42.9409ZM44.2575 45.9059C44.2568 46.3503 44.1686 46.7901 43.998 47.2004C43.8273 47.6106 43.5775 47.9833 43.2627 48.2969C42.948 48.6106 42.5746 48.8592 42.1638 49.0286C41.753 49.1979 41.3128 49.2847 40.8685 49.2839C38.9985 49.2839 37.4795 47.7709 37.4795 45.9059C37.4795 44.0409 38.9995 42.5269 40.8685 42.5269C41.7659 42.5258 42.627 42.8812 43.2625 43.5148C43.898 44.1484 44.2559 45.0085 44.2575 45.9059ZM43.2585 44.7859C43.2508 44.5583 43.155 44.3426 42.9913 44.1843C42.8275 44.026 42.6087 43.9375 42.381 43.9375C42.1533 43.9375 41.9344 44.026 41.7707 44.1843C41.607 44.3426 41.5112 44.5583 41.5035 44.7859C41.5035 45.0186 41.5959 45.2418 41.7605 45.4064C41.9251 45.571 42.1483 45.6634 42.381 45.6634C42.6137 45.6634 42.8369 45.571 43.0015 45.4064C43.166 45.2418 43.2585 45.0186 43.2585 44.7859Z" fill="#14307E"/>
</g>
<path fill-rule="evenodd" clip-rule="evenodd" d="M53.9463 98.5445C78.7893 98.5445 98.9293 78.4045 98.9293 53.5615C98.9293 28.7185 78.7893 8.57853 53.9463 8.57853C29.1033 8.57853 8.96328 28.7185 8.96328 53.5615C8.96328 78.4045 29.1033 98.5445 53.9463 98.5445ZM53.9463 102.729C81.1003 102.729 103.113 80.7155 103.113 53.5615C103.113 26.4075 81.1003 4.39453 53.9463 4.39453C26.7923 4.39453 4.78027 26.4075 4.78027 53.5605C4.78027 80.7135 26.7933 102.728 53.9473 102.728L53.9463 102.729Z" fill="white"/>
</svg>
