<svg width="375" height="422" viewBox="0 0 375 422" fill="none" xmlns="http://www.w3.org/2000/svg">
<path d="M328.744 18.4016C270.623 -49.7788 82.5328 82.276 84.0571 252.509C84.0431 253.549 83.8253 254.568 83.4179 255.523C83.0159 256.473 82.4339 257.337 81.7039 258.066C80.9756 258.802 80.109 259.387 79.154 259.787C78.2057 260.194 77.1871 260.412 76.1545 260.426C75.4661 260.419 74.7917 260.328 74.1314 260.145C73.4711 259.969 72.8389 259.702 72.2489 259.365C71.6588 259.028 71.1109 258.614 70.6192 258.136C70.1345 257.658 69.706 257.124 69.3547 256.541C64.578 246.124 60.7848 235.285 58.0382 224.158C55.2915 213.031 53.5986 201.673 52.9875 190.23C52.3693 178.786 52.833 167.308 54.3713 155.95C55.9027 144.598 58.5088 133.408 62.1405 122.541C62.6884 120.932 62.6603 119.183 62.0562 117.588C61.4604 115.995 60.3298 114.659 58.8577 113.806C57.3855 112.954 55.6632 112.64 53.985 112.917C52.3131 113.198 50.7818 114.041 49.6578 115.32C41.9098 123.587 34.9554 132.572 28.8862 142.146C22.817 151.721 17.668 161.843 13.4954 172.387C9.32992 182.93 6.16203 193.84 4.0333 204.974C1.91089 216.112 0.838459 227.424 0.830098 238.762C0.55614 262.821 5.07996 286.691 14.1487 308.973C23.2143 331.247 36.6387 351.485 53.6338 368.499C70.6246 385.508 90.844 398.95 113.104 408.033C135.359 417.109 159.204 421.64 183.237 421.359C439.844 415.528 380.62 79.2203 328.744 18.4016Z" fill="white"/>
</svg>
