<svg width="211" height="211" viewBox="0 0 211 211" fill="none" xmlns="http://www.w3.org/2000/svg">
<g clip-path="url(#clip0_123_594)">
<path d="M82.3527 51.3603C91.1869 48.4158 98.8654 46.6242 105.816 45.8896C112.628 45.1683 117.751 44.8334 121.936 44.8334C126.414 44.8334 129.724 45.2142 133.52 45.832L134.594 39.0153C134.594 39.0153 124.114 35.7943 110.353 36.9196L109.272 33.2097C113.545 32.3046 116.752 28.513 116.752 23.9705C116.752 18.754 112.522 14.5249 107.306 14.5249C102.089 14.5249 97.8598 18.7544 97.8598 23.9705C97.8598 28.5117 101.065 32.3037 105.337 33.2092L106.539 37.337C91.9288 39.3553 80.2939 45.0639 80.2939 45.0639L82.3527 51.3603Z" fill="white"/>
<path d="M40.8975 79.2662C41.2388 78.8308 41.5745 78.4152 41.9073 78.0112L39.1212 75.9834L34.7531 72.7891C34.4959 73.1407 27.6401 79.4452 22.2234 91.1149C21.9882 90.7461 21.7215 90.3884 21.415 90.0505C19.7912 88.2593 17.5169 87.3697 14.6394 87.4186C14.5965 87.4191 14.5544 87.4195 14.5128 87.4195C12.7138 87.4195 11.4958 86.8107 10.6852 86.095C11.4842 85.0778 11.965 83.7984 11.965 82.4043C11.965 79.1009 9.28635 76.4218 5.98252 76.4218C2.67827 76.4218 0 79.1005 0 82.4043C0 85.7085 2.67827 88.3868 5.98252 88.3868C6.49516 88.3868 6.98977 88.3155 7.46463 88.1945C8.93815 89.8316 11.2785 91.2579 14.6983 91.196C16.4543 91.1677 17.732 91.6202 18.6053 92.5768C19.5984 93.6643 19.9307 95.2237 20.0299 96.3997C20.0243 96.4147 20.0187 96.4289 20.0127 96.4444C16.107 107.087 17.231 120.323 17.231 120.323L26.6783 120.699C26.8703 115.877 27.5641 107.449 30.0019 100.744C34.7123 87.7969 40.5986 79.6724 40.8468 79.3327L40.8975 79.2662Z" fill="white"/>
<path d="M204.206 52.7427C200.902 52.7427 198.223 55.4205 198.223 58.7252C198.223 59.2387 198.295 59.7346 198.417 60.2099C196.783 61.6843 195.361 64.0242 195.414 67.4401C195.442 69.1957 194.99 70.4739 194.034 71.3476C193.285 72.0315 192.312 72.4012 191.395 72.5983C184.348 62.7593 175.682 56.7292 175.682 56.7292L168.896 64.007C174.028 68.6822 179.26 74.5196 184.361 81.8112C187.877 86.838 191.495 93.346 194.518 99.8171L203.679 95.4807C203.679 95.4807 199.497 85.1434 193.604 75.8815C194.631 75.5165 195.663 74.9708 196.561 74.1568C198.352 72.5334 199.238 70.2536 199.193 67.3813C199.163 65.5123 199.784 64.2565 200.516 63.4274C201.533 64.2264 202.812 64.7077 204.206 64.7077C207.51 64.7077 210.189 62.029 210.189 58.7252C210.188 55.4205 207.51 52.7427 204.206 52.7427Z" fill="white"/>
<path d="M180.438 135.041C167.837 141.176 147.087 149.286 119.796 153.086C109.081 154.578 98.6868 155.135 89.1381 155.135C76.7072 155.135 65.7631 154.19 57.3325 153.13C47.7108 151.92 39.9293 150.433 35.6358 149.401V149.4C35.6358 149.399 35.5637 149.397 35.5547 149.395C36.6779 152.955 38.0075 156.405 39.5794 159.704C39.5888 159.724 39.5837 159.745 39.5936 159.765C39.6322 159.846 39.6653 159.928 39.7048 160.009C39.8975 160.411 40.0907 160.811 40.2908 161.21C40.481 161.588 40.6734 161.964 40.8696 162.339C40.9207 162.436 40.97 162.535 41.0216 162.632C43.7312 167.739 46.9745 172.419 50.6845 176.48C63.5528 190.573 76.6711 192.787 76.8029 192.808L77.0064 192.84L77.2022 192.904C77.3151 192.941 88.9483 196.707 106.641 196.707C124.037 196.707 141.105 193.2 157.373 186.282C169.42 180.119 180.83 170.75 186.46 162.393C190.834 155.94 193.997 149.04 195.865 141.878C196.86 138.064 197.636 131.988 197.185 125.567C193.628 127.932 188.025 131.347 180.438 135.041Z" fill="white"/>
<path d="M118.754 145.635C144.926 141.991 164.804 134.238 176.87 128.39C186.9 123.528 193.341 119.125 195.837 117.31C193.358 108.117 186.514 93.684 180.232 84.7038C162.31 59.0825 142.98 52.5023 133.052 50.8626C129.261 50.2358 126.228 49.8726 121.935 49.8726C117.931 49.8726 112.977 50.1989 106.345 50.9C99.6966 51.6037 92.2899 53.3434 83.7013 56.2205C71.6435 60.2593 60.7368 66.5956 52.1593 74.5433L51.8729 74.8099C50.5956 75.9919 47.9423 78.4486 44.8926 82.3355C44.5169 82.8597 39.114 90.6039 34.7986 102.467C31.5614 111.368 31.7713 124.342 31.7713 124.472V124.509C31.7713 127.535 31.8812 130.559 32.2157 133.559C32.2213 133.606 32.1418 133.654 32.1479 133.702C32.1904 134.076 32.2007 134.449 32.2007 134.821V134.823C32.63 136.936 32.87 139.069 33.2968 141.146C33.3019 141.147 33.335 141.183 33.3402 141.183H33.3535C39.6103 142.9 76.9854 151.449 118.754 145.635ZM154.611 76.3766C163.218 76.3766 170.196 83.3548 170.196 91.9627C170.196 100.571 163.218 107.548 154.611 107.548C146.003 107.548 139.024 100.57 139.024 91.9627C139.024 83.3552 146.003 76.3766 154.611 76.3766ZM80.9157 75.7476C94.8274 75.7476 106.105 87.0257 106.105 100.937C106.105 114.849 94.8274 126.126 80.9157 126.126C67.0044 126.126 55.7263 114.849 55.7263 100.937C55.7263 87.0253 67.0044 75.7476 80.9157 75.7476ZM32.3235 134.93C32.5909 136.96 32.9327 139.011 33.3582 141.071C32.9318 139.011 32.5905 136.96 32.3235 134.93Z" fill="white"/>
</g>
<defs>
<clipPath id="clip0_123_594">
<rect width="210.189" height="210.189" fill="white" transform="translate(0 0.521484)"/>
</clipPath>
</defs>
</svg>
