<svg width="514" height="399" viewBox="0 0 514 399" fill="none" xmlns="http://www.w3.org/2000/svg">
<path d="M279.919 358.65C266.791 341.152 259.696 320.911 254.884 300.033C234.165 210.1 250.053 128.199 311.183 57.4271C334.679 30.2153 363.589 10.1691 399.665 2.72038C448.233 -7.29385 494.075 19.4933 509.379 66.5036C510.087 68.6975 510.069 71.2276 512.033 72.8908C512.122 72.9616 512.476 72.7846 512.653 72.6785C512.9 72.5192 513.095 72.2892 513.307 72.0946V114.54C509.45 113.532 510.335 116.964 509.822 118.592C497.808 156.189 471.623 177.439 433.6 185.312C410.546 190.071 387.298 194.371 365.589 203.872C348.515 211.338 332.662 220.787 321.25 236.179C318.242 237.613 316.119 240.036 314.084 242.549C298.921 261.374 288.854 282.57 283.422 306.191C279.424 323.565 280.344 341.134 279.919 358.668V358.65Z" fill="#3157C7"/>
<path d="M163.376 229.562C147.116 214.665 126.45 212.559 105.997 210.1C91.9845 208.401 77.8478 207.853 63.9942 204.898C34.8539 198.705 15.2854 181.455 4.77579 153.712C3.50189 150.351 3.53728 150.333 0.65332 148.121V109.214C4.56347 110.417 3.57266 106.879 4.15653 105.286C20.2218 61.744 62.3665 40.7601 106.599 55.0915C146.001 67.8481 174.664 94.4761 195.17 129.437C231.264 190.956 235.369 255.411 209.448 321.831C209.041 322.893 208.263 323.795 207.661 324.786C205.414 303.572 200.973 282.959 190.251 264.24C183.263 252.05 176.185 239.824 164.367 231.42L164.827 231.367L164.88 231.827C164.367 231.066 163.853 230.305 163.34 229.562H163.376Z" fill="#3157C7"/>
<path d="M279.918 358.65C280.343 341.116 279.423 323.547 283.422 306.173C288.853 282.57 298.921 261.356 314.083 242.531C316.118 240.019 318.241 237.595 321.249 236.162C322.01 250.776 330.043 259.906 343.188 265.196C349.699 267.832 356.21 270.504 362.686 273.211C390.287 284.782 406.229 308.101 405.539 335.879C404.902 361.693 388.447 384.694 364.031 393.912C337.845 403.803 310.421 396.584 290.605 374.503C287.084 370.593 283.545 366.63 281.387 361.711C281.635 360.278 281.228 359.146 279.865 358.491L279.918 358.615V358.65Z" fill="#8FA5FA"/>
<path d="M164.383 231.42C176.202 239.842 183.28 252.068 190.268 264.24C200.99 282.959 205.431 303.59 207.678 324.786C199.929 343.116 188.8 358.809 170.894 368.381C150.494 379.28 125.636 372.628 113.321 353.643C100.812 334.358 105.147 310.065 123.672 295.309C131.952 288.71 141.17 283.384 148.76 275.865C161.234 263.515 167.887 249.29 164.366 231.402L164.383 231.42Z" fill="#8FA5FA"/>
<path d="M279.865 358.509C281.245 359.181 281.634 360.296 281.387 361.729C280.06 361.039 279.547 359.959 279.865 358.509Z" fill="#3157C7"/>
<path d="M163.375 229.562C163.888 230.323 164.401 231.084 164.914 231.827C163.18 231.897 163.481 230.588 163.375 229.562Z" fill="#8FA5FA"/>
</svg>
