<svg width="47" height="64" viewBox="0 0 47 64" fill="none" xmlns="http://www.w3.org/2000/svg">
<path d="M30.5674 16.1079H46.4562L30.5674 0.109375V16.1079Z" fill="#8DD1B0"/>
<path d="M30.5673 16.1079V0.109375H3.96416C2.02008 0.109375 0.456055 1.6842 0.456055 3.6417V59.5702C0.456055 61.5277 2.02008 63.1025 3.96416 63.1025H42.9479C44.892 63.1025 46.4561 61.5277 46.4561 59.5702V16.1079H30.5673Z" fill="white"/>
<path d="M9.22656 24.8203V46.4705H37.686V24.8203H9.22656ZM21.6949 42.9382H12.7347V37.4042H21.6949V42.9382ZM21.6949 33.8866H12.7347V28.3526H21.6949V33.8866ZM34.1779 42.9382H25.2177V37.4042H34.1779V42.9382ZM34.1779 33.8866H25.2177V28.3526H34.1779V33.8866Z" fill="#1EA363"/>
</svg>
