<svg width="64" height="89" viewBox="0 0 64 89" fill="none" xmlns="http://www.w3.org/2000/svg">
<g clip-path="url(#clip0_575_470)">
<path d="M41.9998 22.3125L54.0648 24.5925L63.9998 22.3125L41.9998 0.3125L38.9648 10.7425L41.9998 22.3125Z" fill="#FADA81"/>
<path d="M42 22.3125V0.3125H6C2.685 0.3125 0 2.9975 0 6.3125V82.3125C0 85.6275 2.685 88.3125 6 88.3125H58C61.315 88.3125 64 85.6275 64 82.3125V22.3125H42Z" fill="white"/>
<path d="M39 64.3125H25V59.3125H39V64.3125ZM38.925 54.3125H25.075C21.425 52.0125 19 47.9475 19 43.3125C19 36.1325 24.82 30.3125 32 30.3125C39.18 30.3125 45 36.1325 45 43.3125C45 47.9475 42.575 52.0125 38.925 54.3125Z" fill="#FBBC04"/>
</g>
<defs>
<clipPath id="clip0_575_470">
<rect width="64" height="88" fill="white" transform="translate(0 0.3125)"/>
</clipPath>
</defs>
</svg>
