<svg width="52" height="71" viewBox="0 0 52 71" fill="none" xmlns="http://www.w3.org/2000/svg">
<g clip-path="url(#clip0_575_669)">
<path d="M32.7292 0.3125H5.63319C3.08627 0.3125 0.853516 2.5385 0.853516 5.0865V65.5413C0.853516 68.0865 3.08347 70.3153 5.63599 70.3153H47.0738C49.6236 70.3153 51.8563 68.0893 51.8563 65.5413V19.4029L40.7009 11.4481L32.7292 0.3125Z" fill="#F1F1F1"/>
<path d="M13.6025 51.2221H39.1025V48.0413H13.6053L13.6025 51.2221ZM13.6025 57.5865H32.7268V54.4057H13.6025V57.5865ZM13.6025 35.3125V38.4933H39.1025V35.3125H13.6025ZM13.6025 44.8577H39.1025V41.6769H13.6053L13.6025 44.8577Z" fill="#4285F4"/>
<path d="M32.7295 0.3125V14.6317C32.7295 17.1769 34.9594 19.4029 37.5092 19.4029H51.8538L32.7295 0.3125Z" fill="#A6C5FA"/>
</g>
<defs>
<clipPath id="clip0_575_669">
<rect width="51" height="70" fill="white" transform="translate(0.853516 0.3125)"/>
</clipPath>
</defs>
</svg>
