<svg width="86" height="77" viewBox="0 0 86 77" fill="none" xmlns="http://www.w3.org/2000/svg">
<path d="M46.2999 26.5H26.8999L20.7999 16H52.3999L61.5999 1.60831e-05H9.39994C7.75474 -0.00304315 6.13818 0.430383 4.71518 1.25607C3.29219 2.08176 2.11369 3.27016 1.29994 4.70002C0.465004 6.12562 0.0249023 7.74791 0.0249023 9.40002C0.0249023 11.0521 0.465004 12.6744 1.29994 14.1L34.5999 71.8C35.4303 73.2101 36.6143 74.379 38.0349 75.1911C39.4556 76.0031 41.0636 76.4303 42.6999 76.4303C44.3363 76.4303 45.9443 76.0031 47.365 75.1911C48.7856 74.379 49.9696 73.2101 50.7999 71.8L51.8999 69.9L36.5999 43.3L46.2999 26.5Z" fill="#4AD295"/>
<path d="M84.2 4.70002C83.3863 3.27016 82.2078 2.08176 80.7848 1.25607C79.3618 0.430383 77.7452 -0.00304315 76.1 1.60831e-05H73.8001L48.8 43.3L58 59.3L84.2 14C85.0163 12.5862 85.446 10.9825 85.446 9.35002C85.446 7.71753 85.0163 6.11379 84.2 4.70002Z" fill="#4AD295"/>
</svg>
