<svg width="86" height="77" viewBox="0 0 86 77" fill="none" xmlns="http://www.w3.org/2000/svg">
<g clip-path="url(#clip0_575_682)">
<path d="M46.2994 26.5H26.8994L20.7994 16H52.3994L61.5994 1.6083e-05H9.39945C7.75425 -0.00304315 6.13769 0.430383 4.71469 1.25607C3.2917 2.08176 2.1132 3.27016 1.29945 4.70002C0.464516 6.12562 0.0244141 7.74791 0.0244141 9.40002C0.0244141 11.0521 0.464516 12.6744 1.29945 14.1L34.5994 71.8C35.4298 73.2101 36.6138 74.379 38.0344 75.1911C39.4551 76.0031 41.0631 76.4303 42.6994 76.4303C44.3358 76.4303 45.9438 76.0031 47.3645 75.1911C48.7851 74.379 49.9691 73.2101 50.7994 71.8L51.8994 69.9L36.5994 43.3L46.2994 26.5Z" fill="white"/>
<path d="M84.1998 4.70002C83.3861 3.27016 82.2076 2.08176 80.7846 1.25607C79.3616 0.430383 77.745 -0.00304315 76.0998 1.6083e-05H73.7999L48.7998 43.3L57.9998 59.3L84.1998 14C85.0161 12.5862 85.4458 10.9825 85.4458 9.35002C85.4458 7.71753 85.0161 6.11379 84.1998 4.70002Z" fill="white"/>
</g>
<defs>
<clipPath id="clip0_575_682">
<rect width="86" height="77" fill="white"/>
</clipPath>
</defs>
</svg>
