<svg width="51" height="50" viewBox="0 0 51 50" fill="none" xmlns="http://www.w3.org/2000/svg">
<g clip-path="url(#clip0_575_685)">
<path fill-rule="evenodd" clip-rule="evenodd" d="M16.6133 4.47455e-09C12.3698 4.47456e-09 8.30018 1.68571 5.2996 4.68629C2.29902 7.68687 0.613307 11.7565 0.613307 16V34C0.607449 37.2277 1.58405 40.3807 3.41331 43.04L15.4133 31.04L23.3333 38.97L35.4133 26.04L49.1333 40.74C50.0973 38.662 50.6021 36.4007 50.6133 34.11V15.89C50.5843 11.6656 48.8857 7.62417 45.8883 4.64733C42.8909 1.6705 38.8378 -9.98329e-05 34.6133 4.47455e-09L16.6133 4.47455e-09Z" fill="white"/>
<path fill-rule="evenodd" clip-rule="evenodd" d="M35.3832 49.98L34.6132 50H16.6132C13.8831 50.0004 11.1984 49.3023 8.8144 47.972C6.4304 46.6417 4.42643 44.7235 2.99316 42.4L15.4132 30L35.3932 49.98H35.3832Z" fill="url(#paint0_linear_575_685)"/>
<path fill-rule="evenodd" clip-rule="evenodd" d="M49.4337 40.03C48.2347 42.977 46.1842 45.4996 43.5444 47.2755C40.9046 49.0514 37.7953 50 34.6137 50H16.6137C15.2137 50 13.8537 49.82 12.5537 49.48L35.4137 25L49.4437 40.03H49.4337Z" fill="url(#paint1_linear_575_685)"/>
<path d="M17.2832 22.9219C18.9408 22.9219 20.5305 22.2634 21.7026 21.0913C22.8747 19.9192 23.5332 18.3295 23.5332 16.6719C23.5332 15.0143 22.8747 13.4246 21.7026 12.2525C20.5305 11.0804 18.9408 10.4219 17.2832 10.4219C15.6256 10.4219 14.0359 11.0804 12.8638 12.2525C11.6917 13.4246 11.0332 15.0143 11.0332 16.6719C11.0332 18.3295 11.6917 19.9192 12.8638 21.0913C14.0359 22.2634 15.6256 22.9219 17.2832 22.9219Z" fill="#FC4714"/>
</g>
<defs>
<linearGradient id="paint0_linear_575_685" x1="15.4032" y1="30" x2="15.4032" y2="50" gradientUnits="userSpaceOnUse">
<stop stop-color="#655517"/>
<stop offset="1" stop-color="#010101"/>
</linearGradient>
<linearGradient id="paint1_linear_575_685" x1="34.9237" y1="3.13" x2="33.3337" y2="39.51" gradientUnits="userSpaceOnUse">
<stop stop-opacity="0.4"/>
<stop offset="1"/>
</linearGradient>
<clipPath id="clip0_575_685">
<rect width="50" height="50" fill="white" transform="translate(0.613281)"/>
</clipPath>
</defs>
</svg>
