<svg width="520" height="520" viewBox="0 0 520 520" fill="none" xmlns="http://www.w3.org/2000/svg">
<circle cx="259.905" cy="259.895" r="259.895" fill="#F11F24"/>
<path d="M260.3 465.88C241.45 465.41 225.25 459.11 212 445.88C166.15 400.09 120.33 354.26 74.52 308.41C47.29 281.15 47.15 238.85 74.31 211.61C119.96 165.85 165.68 120.15 211.42 74.4901C238.85 47.1001 281.13 47.2401 308.58 74.6801C353.94 120.03 399.29 165.38 444.64 210.74C472.87 238.97 472.93 280.77 444.8 308.9C399.09 354.61 353.39 400.31 307.68 446.02C294.53 459.17 278.47 465.31 260.3 465.88ZM382.12 260.02C382.24 241.17 377.87 223.4 369.1 206.74C335.73 143.35 252.5 122.29 192.09 161.92C140.58 195.71 123.21 259.81 151.09 313.24C175.39 359.82 228.54 385.09 282.64 375.79C339.79 365.97 381.79 317.1 382.12 260.02Z" fill="#78FFC7"/>
<path d="M382.12 260.02C381.78 317.1 339.78 365.97 282.64 375.79C228.55 385.09 175.4 359.82 151.09 313.24C123.21 259.8 140.58 195.7 192.09 161.92C252.5 122.3 335.73 143.35 369.1 206.74C377.87 223.4 382.24 241.17 382.12 260.02Z" fill="#7D4CCF"/>
</svg>
