<svg width="312" height="463" viewBox="0 0 312 463" fill="none" xmlns="http://www.w3.org/2000/svg">
<path fill-rule="evenodd" clip-rule="evenodd" d="M168.55 70.7341C169.03 24.7141 207.29 -0.585917 241.7 0.104083C281.34 0.904083 312.29 33.7441 311.12 73.3641C307.77 188.164 221.09 278.194 114.27 296.254C106.682 297.535 99.0162 298.379 91.3502 299.223L91.3495 299.223L91.3488 299.223C87.7597 299.619 84.1706 300.014 80.5897 300.454C59.5897 301.334 40.3297 296.924 24.3897 282.564C3.82968 264.044 -4.59032 240.964 2.92968 214.064C10.5897 186.674 29.6697 170.074 57.4597 164.344C62.8816 163.223 68.4559 162.886 74.037 162.548C78.4612 162.281 82.8897 162.013 87.2497 161.354C132.84 154.454 168.08 116.114 168.55 70.7341ZM262.666 254.704C264.852 257.645 266.942 260.455 268.97 263.314H268.98C295.73 301.044 309.66 343.114 311.04 389.254C311.86 416.884 300.45 438.614 276.57 452.514C252.14 466.724 226.81 466.284 202.49 452.024C182.26 440.164 170.46 422.154 169.26 398.364C168.31 379.444 165.5 361.054 154.42 345.284C149.839 338.769 144.47 332.812 139.076 326.826C136.663 324.149 134.245 321.466 131.89 318.724C154.9 313.224 177.84 305.014 199.52 293.444C221.21 281.874 240.89 267.514 259.28 250.134C260.436 251.706 261.563 253.222 262.666 254.704ZM72.4195 325.354C55.6595 324.744 39.6095 321.824 25.0195 313.444C19.3092 310.166 13.8774 306.393 8.32516 302.535L8.32358 302.534C5.79641 300.779 3.24427 299.006 0.629523 297.254C0.613538 297.519 0.593465 297.782 0.573551 298.042C0.531176 298.596 0.489523 299.14 0.489523 299.684C0.489523 307.76 0.484818 315.836 0.480113 323.912C0.46667 346.986 0.453227 370.06 0.549523 393.134C0.569523 398.094 0.939523 403.174 2.02952 408.004C10.4595 445.384 47.5195 468.654 86.2795 461.114C134.11 451.804 158.06 397.754 131.82 357.664C117.94 336.454 97.3895 326.274 72.4295 325.364L72.4195 325.354ZM1.28767 165.97C1.11328 165.94 0.858529 165.897 0.479457 165.854L0.489457 165.844V136.704C0.489457 129.321 0.485013 121.937 0.480569 114.554C0.47168 99.7874 0.462791 85.0208 0.489457 70.2541C0.559457 32.7341 28.6394 3.18409 66.8195 0.39409C103.629 -2.28591 136.519 23.6841 142.049 59.8041C147.429 94.9041 120.259 131.374 84.9695 136.164C80.1596 136.814 75.3159 137.263 70.4738 137.711C63.5477 138.353 56.6249 138.994 49.8095 140.224C32.1895 143.404 17.0795 152.014 3.92946 164.104C3.30469 164.685 2.63474 165.214 1.96536 165.742C1.86332 165.823 1.7613 165.903 1.65946 165.984C1.60823 166.024 1.51811 166.009 1.28767 165.97Z" fill="white"/>
</svg>
