<svg width="1418" height="1442" viewBox="0 0 1418 1442" fill="none" xmlns="http://www.w3.org/2000/svg">
<mask id="mask0_452_119" style="mask-type:alpha" maskUnits="userSpaceOnUse" x="2" y="0" width="1416" height="1442">
<path d="M1395.64 1201.77L949.981 429.66V160.823H1029.99C1074 160.823 1110 124.817 1110 80.8119C1110 36.8063 1074 0.800781 1029.99 0.800781H949.981H469.914H389.903C345.898 0.800781 309.892 36.8063 309.892 80.8119C309.892 124.817 345.898 160.823 389.903 160.823H469.914V429.66L24.2521 1201.77C-37.357 1308.18 39.4536 1441.8 162.672 1441.8H1257.22C1380.44 1441.8 1457.25 1308.18 1395.64 1201.77Z" fill="#A2DCFF"/>
</mask>
<g mask="url(#mask0_452_119)">
<path d="M1492 -31.4512H-74.3652V1470.99H1492V-31.4512Z" fill="#A2DCFF"/>
<g filter="url(#filter0_f_452_119)">
<path d="M791.29 198.118C842.101 217.603 883.723 185.619 868.076 139.107L861.241 118.785C849.656 84.3536 810.836 57.4948 774.532 58.7953C738.23 60.0936 718.189 89.0604 729.771 123.49L736.609 143.814C744.507 167.291 765.641 188.281 791.29 198.118Z" fill="#FFAFD6"/>
</g>
<g filter="url(#filter1_f_452_119)">
<path d="M351.368 32.4662C339.588 32.4662 330.369 22.3243 331.489 10.5992C332.468 0.344176 341.088 -7.48395 351.39 -7.47264L737.043 -7.0429C747.945 -7.03159 756.775 1.8098 756.775 12.7117C756.775 23.6226 747.931 32.4662 737.02 32.4662H351.368Z" fill="url(#paint0_linear_452_119)" fill-opacity="0.74"/>
</g>
<g filter="url(#filter2_f_452_119)">
<path d="M379.182 24.474C367.403 24.474 358.184 14.3321 359.303 2.60691C360.283 -7.64808 368.902 -15.4761 379.202 -15.4648L764.857 -15.0351C775.759 -15.0238 784.589 -6.18239 784.589 4.71948C784.589 15.6304 775.745 24.474 764.835 24.474H379.182Z" fill="url(#paint1_linear_452_119)" fill-opacity="0.74"/>
</g>
<g filter="url(#filter3_f_452_119)">
<path d="M339.225 24.474C327.446 24.474 318.227 14.3321 319.346 2.60691C320.325 -7.64808 328.945 -15.4761 339.248 -15.4648L724.9 -15.0351C735.802 -15.0238 744.634 -6.18239 744.634 4.71948C744.634 15.6304 735.788 24.474 724.877 24.474H339.225Z" fill="url(#paint2_linear_452_119)" fill-opacity="0.74"/>
</g>
<g filter="url(#filter4_f_452_119)">
<path d="M1084.36 125.557C1115.64 139.7 1143.13 120.61 1133.35 91.5418L1123.86 63.3417C1116.94 42.7481 1093.72 26.6848 1072 27.4606C1050.29 28.2386 1038.3 45.564 1045.23 66.1577L1054.72 94.3577C1059.1 107.388 1070.34 119.217 1084.36 125.557Z" fill="white"/>
</g>
<g filter="url(#filter5_f_452_119)">
<path d="M1110.9 118.094C1121.27 114.364 1122.32 100.905 1112.22 101.176L1031.78 103.338C1026.76 103.474 1021.63 107.518 1020.33 112.374C1019.03 117.228 1022.05 121.053 1027.07 120.919L1107.51 118.757C1108.62 118.727 1109.76 118.501 1110.9 118.094Z" fill="white"/>
</g>
<g filter="url(#filter6_f_452_119)">
<path d="M669.473 87.6225C712.318 109.467 752.3 83.9448 738.677 43.4451L719.595 -13.2763C710.274 -40.9811 679.038 -62.5926 649.825 -61.5476C620.614 -60.5027 604.487 -37.1949 613.808 -9.48784L632.889 47.2313C638.419 63.6677 652.087 78.7585 669.473 87.6225Z" fill="#34A554" fill-opacity="0.19"/>
</g>
<g filter="url(#filter7_f_452_119)">
<path d="M707.335 278.126C747.448 299.913 786.195 276.339 773.296 237.992L752.085 174.945C743.429 149.214 714.422 129.145 687.294 130.116C660.166 131.088 645.19 152.732 653.846 178.462L675.055 241.509C679.999 256.204 691.964 269.775 707.335 278.126Z" fill="#F5ECB7" fill-opacity="0.3"/>
</g>
<g filter="url(#filter8_f_452_119)">
<path d="M732.058 340.701C765.845 354.756 794.459 333.802 783.987 302.673L776.738 281.127C769.147 258.564 743.706 240.962 719.914 241.813C696.125 242.665 682.991 261.646 690.581 284.212L697.83 305.756C702.827 320.614 715.934 333.995 732.058 340.701Z" fill="white" fill-opacity="0.93"/>
</g>
<g filter="url(#filter9_f_452_119)">
<path d="M917.301 175.964C908.866 176.086 901.425 170.468 899.233 162.326C895.974 150.218 905.492 138.461 918.011 139.129L1098.3 148.73C1104.77 149.074 1109.86 154.366 1109.95 160.84C1110.05 167.636 1104.63 173.225 1097.83 173.325L917.301 175.964Z" fill="url(#paint3_linear_452_119)" fill-opacity="0.74"/>
</g>
<g filter="url(#filter10_f_452_119)">
<path d="M1045.98 177.718C1054.5 177.842 1061.99 172.1 1064.08 163.84C1067.13 151.793 1057.59 140.258 1045.19 140.975L878.46 150.631C872.005 151.004 866.934 156.299 866.839 162.765C866.74 169.575 872.182 175.178 878.992 175.278L1045.98 177.718Z" fill="url(#paint4_linear_452_119)" fill-opacity="0.74"/>
</g>
<g filter="url(#filter11_f_452_119)">
<path d="M981.267 161.714C972.835 161.836 965.393 156.22 963.199 148.076C959.942 135.968 969.458 124.211 981.979 124.879L1162.27 134.48C1168.73 134.824 1173.83 140.116 1173.92 146.59C1174.02 153.386 1168.59 158.975 1161.8 159.075L981.267 161.714Z" fill="url(#paint5_linear_452_119)" fill-opacity="0.74"/>
</g>
<g filter="url(#filter12_f_452_119)">
<path d="M577.056 171.092C583.788 171.189 589.793 166.885 591.862 160.48C595.139 150.331 587.302 140.022 576.647 140.463L391.048 148.162C385.688 148.384 381.436 152.753 381.357 158.118C381.275 163.703 385.735 168.297 391.32 168.378L577.056 171.092Z" fill="url(#paint6_linear_452_119)" fill-opacity="0.85"/>
</g>
</g>
<mask id="mask1_452_119" style="mask-type:alpha" maskUnits="userSpaceOnUse" x="0" y="800" width="1418" height="641">
<path d="M1395.64 1201.77L1214.02 886.523C1186.82 835.316 1133.21 800.912 1071.6 800.912C983.587 800.912 713.949 959.333 709.95 960.934H709.149L208.279 880.923L22.653 1201.77C-36.5541 1303.38 31.4559 1429.8 145.071 1441H1272.43C1386.84 1429.8 1454.85 1303.38 1395.64 1201.77Z" fill="#168EE4"/>
</mask>
<g mask="url(#mask1_452_119)">
<path d="M1420.08 759.73H-26.4121V1486.97H1420.08V759.73Z" fill="#118BE3"/>
<g filter="url(#filter13_f_452_119)">
<path d="M865.264 823.27L825.952 838.988C772.676 860.291 750.131 919.242 775.596 970.659L783.732 987.085C809.198 1038.5 873.031 1062.91 926.308 1041.61L965.619 1025.89C1018.9 1004.59 1041.44 945.639 1015.98 894.222L1007.84 877.796C982.374 826.379 918.54 801.967 865.264 823.27Z" fill="#FFAFD6"/>
</g>
<g filter="url(#filter14_f_452_119)">
<path d="M833.603 791.473L794.292 807.192C741.016 828.494 718.47 887.445 743.936 938.862L752.072 955.288C777.538 1006.71 841.371 1031.12 894.648 1009.81L933.959 994.096C987.236 972.793 1009.78 913.842 984.315 862.425L976.18 846C950.714 794.582 886.88 770.17 833.603 791.473Z" fill="#FFAFD6"/>
</g>
<g filter="url(#filter15_f_452_119)">
<path d="M474.95 1091.08C445.655 1031.92 480.197 965.216 546.217 953.447L623.532 939.666C645.93 935.674 665.205 923.275 677.035 905.251C714.533 848.113 808.203 861.944 832.033 928.138L855.275 992.703C873.008 1041.95 849.359 1093.96 800.314 1113.57L634.499 1179.87C581.222 1201.17 517.388 1176.76 491.922 1125.34L474.95 1091.08Z" fill="#C9F8C4" fill-opacity="0.75"/>
</g>
<g filter="url(#filter16_f_452_119)">
<path d="M1159.72 1138.67C1150.94 1104.95 1111.47 1090.5 1082.09 1110.24C1053.6 1129.39 1015.3 1116.44 1005.16 1084.25L989.861 1035.64C971.925 978.673 903.892 956.087 853.832 990.484L600.829 1164.32C565.188 1188.81 516.991 1179.41 494.382 1143.57C464.481 1096.18 394.743 1098.29 366.846 1148.14C293.084 1279.96 184.586 1487.4 222.211 1504.25C228.198 1506.92 235.447 1504.98 242.061 1505.04L1119.12 1514.14C1188.44 1514.86 1240.45 1448.77 1223.08 1382.06L1159.72 1138.67Z" fill="#D5FCFD" fill-opacity="0.5"/>
</g>
</g>
<path d="M710.762 960.934C710.762 960.934 437.924 800.912 349.112 800.912C260.298 800.912 185.883 872.921 185.883 960.934C185.883 1048.95 260.298 1120.96 349.112 1120.96C437.924 1120.96 710.762 960.934 710.762 960.934Z" fill="#0B76CB"/>
<defs>
<filter id="filter0_f_452_119" x="595.755" y="-71.9834" width="406.395" height="406.646" filterUnits="userSpaceOnUse" color-interpolation-filters="sRGB">
<feFlood flood-opacity="0" result="BackgroundImageFix"/>
<feBlend mode="normal" in="SourceGraphic" in2="BackgroundImageFix" result="shape"/>
<feGaussianBlur stdDeviation="65.3667" result="effect1_foregroundBlur_452_119"/>
</filter>
<filter id="filter1_f_452_119" x="292.53" y="-46.3393" width="503.112" height="117.673" filterUnits="userSpaceOnUse" color-interpolation-filters="sRGB">
<feFlood flood-opacity="0" result="BackgroundImageFix"/>
<feBlend mode="normal" in="SourceGraphic" in2="BackgroundImageFix" result="shape"/>
<feGaussianBlur stdDeviation="19.4333" result="effect1_foregroundBlur_452_119"/>
</filter>
<filter id="filter2_f_452_119" x="320.344" y="-54.3314" width="503.112" height="117.673" filterUnits="userSpaceOnUse" color-interpolation-filters="sRGB">
<feFlood flood-opacity="0" result="BackgroundImageFix"/>
<feBlend mode="normal" in="SourceGraphic" in2="BackgroundImageFix" result="shape"/>
<feGaussianBlur stdDeviation="19.4333" result="effect1_foregroundBlur_452_119"/>
</filter>
<filter id="filter3_f_452_119" x="280.387" y="-54.3314" width="503.114" height="117.673" filterUnits="userSpaceOnUse" color-interpolation-filters="sRGB">
<feFlood flood-opacity="0" result="BackgroundImageFix"/>
<feBlend mode="normal" in="SourceGraphic" in2="BackgroundImageFix" result="shape"/>
<feGaussianBlur stdDeviation="19.4333" result="effect1_foregroundBlur_452_119"/>
</filter>
<filter id="filter4_f_452_119" x="976.134" y="-39.6998" width="226.359" height="237.157" filterUnits="userSpaceOnUse" color-interpolation-filters="sRGB">
<feFlood flood-opacity="0" result="BackgroundImageFix"/>
<feBlend mode="normal" in="SourceGraphic" in2="BackgroundImageFix" result="shape"/>
<feGaussianBlur stdDeviation="33.5667" result="effect1_foregroundBlur_452_119"/>
</filter>
<filter id="filter5_f_452_119" x="959.965" y="41.1053" width="219.364" height="139.883" filterUnits="userSpaceOnUse" color-interpolation-filters="sRGB">
<feFlood flood-opacity="0" result="BackgroundImageFix"/>
<feBlend mode="normal" in="SourceGraphic" in2="BackgroundImageFix" result="shape"/>
<feGaussianBlur stdDeviation="30.0333" result="effect1_foregroundBlur_452_119"/>
</filter>
<filter id="filter6_f_452_119" x="544.033" y="-128.717" width="264.489" height="291.482" filterUnits="userSpaceOnUse" color-interpolation-filters="sRGB">
<feFlood flood-opacity="0" result="BackgroundImageFix"/>
<feBlend mode="normal" in="SourceGraphic" in2="BackgroundImageFix" result="shape"/>
<feGaussianBlur stdDeviation="33.5667" result="effect1_foregroundBlur_452_119"/>
</filter>
<filter id="filter7_f_452_119" x="584.259" y="62.9486" width="258.695" height="290.644" filterUnits="userSpaceOnUse" color-interpolation-filters="sRGB">
<feFlood flood-opacity="0" result="BackgroundImageFix"/>
<feBlend mode="normal" in="SourceGraphic" in2="BackgroundImageFix" result="shape"/>
<feGaussianBlur stdDeviation="33.5667" result="effect1_foregroundBlur_452_119"/>
</filter>
<filter id="filter8_f_452_119" x="607.163" y="160.517" width="260.283" height="265.908" filterUnits="userSpaceOnUse" color-interpolation-filters="sRGB">
<feFlood flood-opacity="0" result="BackgroundImageFix"/>
<feBlend mode="normal" in="SourceGraphic" in2="BackgroundImageFix" result="shape"/>
<feGaussianBlur stdDeviation="40.6333" result="effect1_foregroundBlur_452_119"/>
</filter>
<filter id="filter9_f_452_119" x="873.854" y="114.368" width="260.834" height="86.332" filterUnits="userSpaceOnUse" color-interpolation-filters="sRGB">
<feFlood flood-opacity="0" result="BackgroundImageFix"/>
<feBlend mode="normal" in="SourceGraphic" in2="BackgroundImageFix" result="shape"/>
<feGaussianBlur stdDeviation="12.3667" result="effect1_foregroundBlur_452_119"/>
</filter>
<filter id="filter10_f_452_119" x="838.571" y="112.677" width="254.348" height="93.3105" filterUnits="userSpaceOnUse" color-interpolation-filters="sRGB">
<feFlood flood-opacity="0" result="BackgroundImageFix"/>
<feBlend mode="normal" in="SourceGraphic" in2="BackgroundImageFix" result="shape"/>
<feGaussianBlur stdDeviation="14.1333" result="effect1_foregroundBlur_452_119"/>
</filter>
<filter id="filter11_f_452_119" x="937.821" y="100.118" width="260.836" height="86.332" filterUnits="userSpaceOnUse" color-interpolation-filters="sRGB">
<feFlood flood-opacity="0" result="BackgroundImageFix"/>
<feBlend mode="normal" in="SourceGraphic" in2="BackgroundImageFix" result="shape"/>
<feGaussianBlur stdDeviation="12.3667" result="effect1_foregroundBlur_452_119"/>
</filter>
<filter id="filter12_f_452_119" x="356.622" y="115.716" width="260.727" height="80.1113" filterUnits="userSpaceOnUse" color-interpolation-filters="sRGB">
<feFlood flood-opacity="0" result="BackgroundImageFix"/>
<feBlend mode="normal" in="SourceGraphic" in2="BackgroundImageFix" result="shape"/>
<feGaussianBlur stdDeviation="12.3667" result="effect1_foregroundBlur_452_119"/>
</filter>
<filter id="filter13_f_452_119" x="591.984" y="642.435" width="607.603" height="580.011" filterUnits="userSpaceOnUse" color-interpolation-filters="sRGB">
<feFlood flood-opacity="0" result="BackgroundImageFix"/>
<feBlend mode="normal" in="SourceGraphic" in2="BackgroundImageFix" result="shape"/>
<feGaussianBlur stdDeviation="86.5667" result="effect1_foregroundBlur_452_119"/>
</filter>
<filter id="filter14_f_452_119" x="560.324" y="610.638" width="607.603" height="580.011" filterUnits="userSpaceOnUse" color-interpolation-filters="sRGB">
<feFlood flood-opacity="0" result="BackgroundImageFix"/>
<feBlend mode="normal" in="SourceGraphic" in2="BackgroundImageFix" result="shape"/>
<feGaussianBlur stdDeviation="86.5667" result="effect1_foregroundBlur_452_119"/>
</filter>
<filter id="filter15_f_452_119" x="312.504" y="717.494" width="700.572" height="622.011" filterUnits="userSpaceOnUse" color-interpolation-filters="sRGB">
<feFlood flood-opacity="0" result="BackgroundImageFix"/>
<feBlend mode="normal" in="SourceGraphic" in2="BackgroundImageFix" result="shape"/>
<feGaussianBlur stdDeviation="75.9667" result="effect1_foregroundBlur_452_119"/>
</filter>
<filter id="filter16_f_452_119" x="34.3039" y="794.027" width="1372.35" height="900.314" filterUnits="userSpaceOnUse" color-interpolation-filters="sRGB">
<feFlood flood-opacity="0" result="BackgroundImageFix"/>
<feBlend mode="normal" in="SourceGraphic" in2="BackgroundImageFix" result="shape"/>
<feGaussianBlur stdDeviation="90.1" result="effect1_foregroundBlur_452_119"/>
</filter>
<linearGradient id="paint0_linear_452_119" x1="538.156" y1="43.7345" x2="538.923" y2="-0.271072" gradientUnits="userSpaceOnUse">
<stop stop-color="white" stop-opacity="0"/>
<stop offset="0.596645" stop-color="white"/>
<stop offset="1" stop-color="white" stop-opacity="0"/>
</linearGradient>
<linearGradient id="paint1_linear_452_119" x1="565.97" y1="35.74" x2="566.737" y2="-8.26327" gradientUnits="userSpaceOnUse">
<stop stop-color="white" stop-opacity="0"/>
<stop offset="0.596645" stop-color="white"/>
<stop offset="1" stop-color="white" stop-opacity="0"/>
</linearGradient>
<linearGradient id="paint2_linear_452_119" x1="526.013" y1="35.74" x2="526.782" y2="-8.26327" gradientUnits="userSpaceOnUse">
<stop stop-color="white" stop-opacity="0"/>
<stop offset="0.596645" stop-color="white"/>
<stop offset="1" stop-color="white" stop-opacity="0"/>
</linearGradient>
<linearGradient id="paint3_linear_452_119" x1="1004.26" y1="181.485" x2="1004.44" y2="154.957" gradientUnits="userSpaceOnUse">
<stop stop-color="white" stop-opacity="0"/>
<stop offset="0.596645" stop-color="white"/>
<stop offset="1" stop-color="white" stop-opacity="0"/>
</linearGradient>
<linearGradient id="paint4_linear_452_119" x1="965.727" y1="183.339" x2="965.499" y2="156.81" gradientUnits="userSpaceOnUse">
<stop stop-color="white" stop-opacity="0"/>
<stop offset="0.596645" stop-color="white"/>
<stop offset="1" stop-color="white" stop-opacity="0"/>
</linearGradient>
<linearGradient id="paint5_linear_452_119" x1="1068.22" y1="167.235" x2="1068.41" y2="140.707" gradientUnits="userSpaceOnUse">
<stop stop-color="white" stop-opacity="0"/>
<stop offset="0.596645" stop-color="white"/>
<stop offset="1" stop-color="white" stop-opacity="0"/>
</linearGradient>
<linearGradient id="paint6_linear_452_119" x1="487.105" y1="175.392" x2="487.032" y2="153.466" gradientUnits="userSpaceOnUse">
<stop stop-color="white" stop-opacity="0"/>
<stop offset="0.596645" stop-color="white"/>
<stop offset="1" stop-color="white" stop-opacity="0"/>
</linearGradient>
</defs>
</svg>
