<svg width="487" height="321" viewBox="0 0 487 321" fill="none" xmlns="http://www.w3.org/2000/svg">
<g clip-path="url(#clip0_648_589)">
<path d="M475.16 48.82C482.13 54.35 485.03 61.8 486.23 70.43C488.33 85.5 483.68 99.16 477.76 112.44C469.6 130.75 458.06 146.95 445.25 162.33C436.02 173.41 426.19 183.93 415.71 193.75C393.22 214.8 368.83 233.43 342.5 249.49C315.77 265.8 287.81 279.49 258.53 290.66C245.64 295.58 232.67 300.34 219.41 303.82C203.7 307.95 187.91 311.96 171.78 314.62C156.25 317.18 140.62 319.54 125.03 319.95C109.32 320.37 93.49 321.16 77.64 318.64C61.55 316.08 45.65 313.5 30.87 306.38C18.9 300.62 9.05995 292.61 3.90995 279.81C3.31995 278.34 3.35995 276.94 3.07995 275.51C2.11995 262.83 5.40995 250.97 11.26 240C19.56 224.45 30.4499 210.63 42.5299 197.86C58.0499 181.45 75.46 167.19 93.54 153.67C120.53 133.5 149.16 116.02 178.92 100.35C197.67 90.48 216.92 81.62 236.53 73.58C256.85 65.24 277.59 58.12 298.63 51.78C317.21 46.18 336.02 41.6 355.1 38.38C382.842 33.7095 410.131 28.7214 439.17 34.92C447.77 36.76 456.28 38.33 464.34 42.26C467.1 43.61 469.44 46.87 473.23 45.94L473.19 45.91C472.44 47.36 473.28 47.23 474.25 46.98L474.2 46.92C473.29 48.16 474.23 48.49 475.15 48.82H475.16ZM180 274.45C192.68 274.76 204.19 272.53 215.45 269.93C232.54 265.98 249.25 260.56 265.42 253.56C278.89 247.73 292.19 241.56 304.92 234.28C325.14 222.71 344.21 209.51 360.4 192.54C366.06 186.6 371.49 180.38 374.41 172.62C379.35 159.48 376.27 150.36 364.55 146.07C357.86 143.62 350.5 142.69 343.37 142.93C334.12 143.24 324.96 144.9 315.78 146.41C301.59 148.73 287.97 152.79 274.56 157.42C255.27 164.08 236.77 172.64 219.02 182.92C199.24 194.39 180.48 207.12 164.52 223.57C157.69 230.61 151.7 238.45 148.63 248.05C145.35 258.3 148.61 266 158.49 270.35C165.59 273.48 173.09 275.08 180 274.45Z" fill="#0077FF"/>
<path d="M473.24 45.9399C469.45 46.8699 467.11 43.5999 464.35 42.2599C456.29 38.3199 447.78 36.7499 439.18 34.9199C410.182 28.7301 382.821 33.6796 355.11 38.3799C336.03 41.5999 317.22 46.1799 298.64 51.7799C277.6 58.1199 256.86 65.2399 236.54 73.5799C216.93 81.6299 197.68 90.4799 178.93 100.35C149.17 116.02 120.54 133.5 93.5499 153.67C75.4599 167.19 58.0599 181.45 42.5399 197.86C30.4599 210.63 19.5599 224.45 11.2699 240C5.4199 250.97 2.1299 262.83 3.0899 275.51C0.849903 272.57 0.529903 269.08 0.259903 265.58C-0.700097 252.89 0.889904 240.41 5.8599 228.81C8.2399 223.24 11.0399 217.53 13.4999 212.04C17.3099 203.55 22.0099 195.8 27.1999 188.33C35.0299 177.05 43.7899 166.54 53.2199 156.44C61.2499 147.83 68.1099 138.03 73.6199 127.2C83.5899 107.6 91.8199 87.0399 104.97 69.0999C118.71 50.3599 135.72 35.4099 155.33 23.1599C169.17 14.5099 184.31 8.88994 199.89 4.76994C209.52 2.21994 219.53 0.309941 229.63 0.189941C243.29 0.0199411 256.99 -0.500059 270.53 2.12994C280.77 4.11994 291 6.34994 300.7 10.2099C317.7 16.9699 335.27 19.1599 353.41 18.1199C370.7 17.1199 387.81 18.7399 405.01 20.7899C420.06 22.5799 434.5 26.0299 448.56 31.1799C457.62 34.4999 466.4 38.7299 473.24 45.9799V45.9399Z" fill="black"/>
<path d="M475.16 48.8199C474.24 48.4899 473.31 48.1599 474.21 46.9199C475.33 47.1499 475.13 48.0399 475.16 48.8199Z" fill="black"/>
<path d="M474.26 46.9799C473.29 47.2299 472.45 47.3599 473.2 45.9099C473.55 46.2699 473.91 46.6199 474.26 46.9799Z" fill="black"/>
<path d="M180 274.45C173.09 275.08 165.6 273.48 158.49 270.35C148.61 266 145.36 258.3 148.63 248.05C151.7 238.44 157.68 230.61 164.52 223.57C180.48 207.12 199.23 194.39 219.02 182.92C236.76 172.63 255.27 164.08 274.56 157.42C287.97 152.79 301.59 148.73 315.78 146.41C324.97 144.91 334.12 143.24 343.37 142.93C350.5 142.69 357.85 143.62 364.55 146.07C376.26 150.36 379.34 159.48 374.41 172.62C371.5 180.38 366.07 186.6 360.4 192.54C344.21 209.52 325.14 222.71 304.92 234.28C292.2 241.56 278.9 247.74 265.42 253.56C249.25 260.56 232.54 265.98 215.45 269.93C204.19 272.53 192.68 274.75 180 274.45Z" fill="white"/>
</g>
<defs>
<clipPath id="clip0_648_589">
<rect width="486.75" height="320.39" fill="white"/>
</clipPath>
</defs>
</svg>
