<svg width="41" height="28" viewBox="0 0 41 28" fill="none" xmlns="http://www.w3.org/2000/svg">
<path opacity="0.2" d="M7.19946 27.5C11.0655 27.5 14.1995 24.366 14.1995 20.5C14.1995 16.634 11.0655 13.5 7.19946 13.5C3.33347 13.5 0.199463 16.634 0.199463 20.5C0.199463 24.366 3.33347 27.5 7.19946 27.5Z" fill="black"/>
<path d="M7.19946 26.5C11.0655 26.5 14.1995 23.366 14.1995 19.5C14.1995 15.634 11.0655 12.5 7.19946 12.5C3.33347 12.5 0.199463 15.634 0.199463 19.5C0.199463 23.366 3.33347 26.5 7.19946 26.5Z" fill="#FFE174"/>
<path opacity="0.2" d="M10.1995 17.5C13.5132 17.5 16.1995 14.8137 16.1995 11.5C16.1995 8.18629 13.5132 5.5 10.1995 5.5C6.88575 5.5 4.19946 8.18629 4.19946 11.5C4.19946 14.8137 6.88575 17.5 10.1995 17.5Z" fill="black"/>
<path d="M10.1995 16.5C13.5132 16.5 16.1995 13.8137 16.1995 10.5C16.1995 7.18629 13.5132 4.5 10.1995 4.5C6.88575 4.5 4.19946 7.18629 4.19946 10.5C4.19946 13.8137 6.88575 16.5 10.1995 16.5Z" fill="#FFD338"/>
<path opacity="0.2" d="M21.1995 20.5C26.17 20.5 30.1995 16.4706 30.1995 11.5C30.1995 6.52944 26.17 2.5 21.1995 2.5C16.2289 2.5 12.1995 6.52944 12.1995 11.5C12.1995 16.4706 16.2289 20.5 21.1995 20.5Z" fill="black"/>
<path d="M21.1995 18.5C26.17 18.5 30.1995 14.4706 30.1995 9.5C30.1995 4.52944 26.17 0.5 21.1995 0.5C16.2289 0.5 12.1995 4.52944 12.1995 9.5C12.1995 14.4706 16.2289 18.5 21.1995 18.5Z" fill="#FFB822"/>
<path opacity="0.2" d="M31.1995 27.5C36.17 27.5 40.1995 23.4706 40.1995 18.5C40.1995 13.5294 36.17 9.5 31.1995 9.5C26.2289 9.5 22.1995 13.5294 22.1995 18.5C22.1995 23.4706 26.2289 27.5 31.1995 27.5Z" fill="black"/>
<path d="M31.1995 26.5C36.17 26.5 40.1995 22.4706 40.1995 17.5C40.1995 12.5294 36.17 8.5 31.1995 8.5C26.2289 8.5 22.1995 12.5294 22.1995 17.5C22.1995 22.4706 26.2289 26.5 31.1995 26.5Z" fill="#FF7C2D"/>
<path opacity="0.2" d="M20.1995 27.5C25.7223 27.5 30.1995 23.0228 30.1995 17.5C30.1995 11.9772 25.7223 7.5 20.1995 7.5C14.6766 7.5 10.1995 11.9772 10.1995 17.5C10.1995 23.0228 14.6766 27.5 20.1995 27.5Z" fill="black"/>
<path d="M20.1995 26.5C25.7223 26.5 30.1995 22.0228 30.1995 16.5C30.1995 10.9772 25.7223 6.5 20.1995 6.5C14.6766 6.5 10.1995 10.9772 10.1995 16.5C10.1995 22.0228 14.6766 26.5 20.1995 26.5Z" fill="#FF972D"/>
</svg>
