<svg width="625" height="592" viewBox="0 0 625 592" fill="none" xmlns="http://www.w3.org/2000/svg">
<path d="M604.8 163.899L426.973 306.433V325.694C428.325 325.991 429.729 325.969 431.072 325.631C432.415 325.293 433.66 324.648 434.709 323.746L604.8 187.481V163.899Z" fill="white"/>
<path d="M251.661 163.899L429.488 306.433V325.694C428.136 325.991 426.732 325.969 425.389 325.631C424.046 325.293 422.801 324.648 421.752 323.746L251.661 187.481V163.899Z" fill="white"/>
<path fill-rule="evenodd" clip-rule="evenodd" d="M356.348 0V591.317L0 532.175V59.1157L356.348 0ZM87.0098 298.854C87.0098 216.425 137.819 190.227 169.067 190.227C226.053 190.227 247.955 243.508 247.955 296.408C247.955 345.273 225.696 403.428 168.255 404.633C137.243 405.284 87.0098 379.54 87.0098 298.854ZM206.048 295.64C206.048 256.855 190.836 231.456 165.82 231.456C135.441 231.456 124.343 270.888 124.343 296.254C123.936 321.213 132.1 362.535 166.203 362.535C193.297 362.535 206.048 329.944 206.048 295.64Z" fill="white"/>
<path fill-rule="evenodd" clip-rule="evenodd" d="M212.473 155.328C212.473 141.349 223.757 130.118 237.762 130.118H598.779C612.784 130.118 624.068 141.349 624.068 155.328L623.882 449.866C624.068 462.271 612.517 469.98 598.885 469.98H234.988C219.569 469.98 211.886 458.403 212.579 444.771L212.575 432H232.794L232.8 448.852H603.741L603.634 151.006H232.694L232.698 163.899H212.476L212.473 155.328Z" fill="white"/>
</svg>
