<svg width="1382" height="1442" viewBox="0 0 1382 1442" fill="none" xmlns="http://www.w3.org/2000/svg">
<path d="M238.66 253.406C283.21 289.721 300.085 287.156 384.19 281.531L1177.09 233.966C1193.97 233.966 1179.93 217.091 1174.26 214.256L1042.54 119.081C1017.48 99.3709 983.725 77.1409 919.24 82.4959L151.675 138.746C123.55 141.311 117.925 155.396 129.175 166.646L238.66 253.406ZM286.225 438.356V1272.48C286.225 1317.25 308.5 1334.13 358.9 1331.29L1230.33 1280.89C1280.73 1278.06 1286.58 1247.37 1286.58 1210.83V382.331C1286.58 345.746 1272.49 326.306 1241.58 329.141L331.045 382.331C297.295 385.166 286.27 401.771 286.27 438.131L286.225 438.356ZM1146.4 482.861C1152.03 508.196 1146.4 533.261 1121.06 536.321L1079.13 544.781V1160.47C1042.54 1180.18 1009.06 1191.43 981.16 1191.43C936.16 1191.43 924.91 1177.35 891.385 1135.41L616.705 704.171V1121.37L703.645 1141.08C703.645 1141.08 703.645 1191.48 633.58 1191.48L440.215 1202.73C434.59 1191.48 440.215 1163.35 459.925 1157.95L510.325 1143.87V592.391L440.26 586.766C434.635 561.431 448.72 525.116 487.825 522.326L695.23 508.241L981.16 945.101V558.596L908.26 550.136C902.635 519.446 924.91 496.946 953.035 494.336L1146.4 482.861ZM87.235 63.1009L885.76 4.2859C983.725 -4.1741 1009.06 1.4509 1070.67 46.2259L1325.68 225.506C1367.62 256.196 1381.71 264.656 1381.71 298.181V1280.94C1381.71 1342.59 1359.2 1378.9 1280.9 1384.53L353.23 1440.55C294.64 1443.39 266.515 1434.93 235.555 1395.78L47.815 1152.01C14.29 1107.24 0.25 1073.71 0.25 1034.61V161.111C0.25 110.711 22.75 68.7709 87.19 63.1459L87.235 63.1009Z" fill="black"/>
</svg>
