<svg width="1607" height="1968" viewBox="0 0 1607 1968" fill="none" xmlns="http://www.w3.org/2000/svg">
<path d="M699.996 6.68893C356.94 43.4945 15.2734 307.383 1.38449 685.161C-7.64328 915.717 88.8845 1088.63 319.44 1137.24C345.829 1028.22 350.69 969.189 350.69 969.189C350.69 969.189 249.301 871.967 238.885 810.161C154.162 312.939 840.968 -26.6444 1201.38 320.578C1450 561.55 1286.11 1302.52 884.718 1225.44C499.996 1151.83 1072.91 562.244 765.968 446.272C516.662 351.828 384.023 734.467 502.079 924.05C432.634 1250.44 283.329 1558.08 343.746 1967.11C540.273 1831.69 606.246 1571.97 660.412 1301.13C759.023 1358.08 811.801 1417.8 937.496 1426.83C1401.38 1460.86 1660.41 985.856 1597.22 546.967C1540.27 158.078 1133.33 -39.8388 699.996 6.68893Z" fill="white"/>
</svg>
