<svg width="2078" height="1563" viewBox="0 0 2078 1563" fill="none" xmlns="http://www.w3.org/2000/svg">
<path d="M217.102 1116.39V1560.56C146.269 1563.89 75.4353 1563.06 4.60198 1558.89C2.93531 1537.22 0.435312 1518.89 0.435312 1501.39C0.435312 1188.89 -0.398022 877.223 0.435312 564.723C1.26865 313.056 149.602 101.389 374.602 27.2226C708.769 -83.6107 1046.27 158.056 1077.1 497.223C1100.44 752.223 966.269 978.889 742.935 1074.72C671.269 1105.56 596.269 1115.56 519.602 1115.56C421.269 1116.39 324.602 1116.39 217.102 1116.39ZM217.935 892.223C327.102 892.223 428.769 890.556 530.435 892.223C711.269 895.556 840.435 760.556 862.935 600.556C887.935 417.223 759.602 248.889 577.102 223.056H576.269C406.269 200.556 234.602 332.223 220.435 508.056C209.602 633.056 217.935 758.056 217.935 892.223Z" fill="#F9FBF9"/>
<path d="M1673.77 539.724L2077.93 1108.06H1816.27L1516.27 697.224C1407.1 833.057 1316.27 973.89 1212.93 1108.06H952.102L1355.43 539.724L996.268 1.39062H1257.93L1514.6 384.724L1771.27 1.39062H2032.1L1673.77 539.724Z" fill="#FAFCFA"/>
</svg>
