<svg width="1252" height="1557" viewBox="0 0 1252 1557" fill="none" xmlns="http://www.w3.org/2000/svg">
<path fill-rule="evenodd" clip-rule="evenodd" d="M762.8 339.2H427.3C373.8 339.2 330.5 384.2 330.5 439.4V813H0.100009V439.4C-0.699991 382.5 9.80001 326.1 30.8 273.2C51.9 220.4 83.1 172.2 122.8 131.5C162.4 90.7 209.8 58.2 262 35.7C314.3 13.2 370.4 1.2 427.3 0.5H762.8V340.1M490.1 1217.1H824.8C878.3 1217.1 921.6 1173 921.6 1118.6V745.1H1251.9V1118.6C1252.6 1175.4 1242.1 1231.8 1221 1284.5C1199.9 1337.3 1168.6 1385.3 1129 1426C1089.3 1466.7 1042.1 1499.2 989.9 1521.6C937.7 1544 881.6 1556 824.8 1556.7H490.1V1217.1Z" fill="white"/>
</svg>
