<svg width="107" height="135" viewBox="0 0 107 135" fill="none" xmlns="http://www.w3.org/2000/svg">
<path d="M33.9543 2.18085C33.9543 1.8409 34.0563 1.56894 34.2602 1.36497C34.5322 1.09301 34.8382 0.957031 35.1781 0.957031H47.1103C47.4503 0.957031 47.7223 1.09301 47.9262 1.36497C48.1982 1.56894 48.3342 1.8409 48.3342 2.18085V71.1227C48.3342 71.4626 48.1982 71.7686 47.9262 72.0406C47.7223 72.2445 47.4503 72.3465 47.1103 72.3465H35.1781C34.8382 72.3465 34.5322 72.2445 34.2602 72.0406C34.0563 71.7686 33.9543 71.4626 33.9543 71.1227V67.7572C33.9543 67.5532 33.8863 67.4512 33.7503 67.4512C33.6143 67.3832 33.4784 67.4172 33.3424 67.5532C30.4868 71.2927 26.5774 73.1624 21.6141 73.1624C16.8548 73.1624 12.7414 71.8366 9.27393 69.185C5.87443 66.5334 3.42679 62.8959 1.93101 58.2726C0.77518 54.7371 0.197266 50.6237 0.197266 45.9324C0.197266 41.1051 0.809175 36.8897 2.03299 33.2863C3.59676 28.9349 6.0444 25.5014 9.37591 22.9858C12.7754 20.4022 16.9568 19.1104 21.9201 19.1104C26.8153 19.1104 30.6228 20.8101 33.3424 24.2096C33.4784 24.4136 33.6143 24.4816 33.7503 24.4136C33.8863 24.3456 33.9543 24.2096 33.9543 24.0056V2.18085ZM31.8126 56.4369C33.1724 53.9212 33.8523 50.4877 33.8523 46.1364C33.8523 41.581 33.1044 38.0116 31.6086 35.428C30.0449 32.7763 27.7672 31.4505 24.7756 31.4505C21.5801 31.4505 19.1665 32.7763 17.5347 35.428C15.835 38.0796 14.9851 41.683 14.9851 46.2384C14.9851 50.3178 15.699 53.7173 17.1268 56.4369C18.8265 59.3604 21.3421 60.8222 24.6737 60.8222C27.7332 60.8222 30.1129 59.3604 31.8126 56.4369Z" fill="white"/>
<path d="M55.9235 134.999C55.5836 134.999 55.2776 134.897 55.0056 134.693C54.8017 134.421 54.6997 134.115 54.6997 133.775V64.8332C54.6997 64.4932 54.8017 64.2213 55.0056 64.0173C55.2776 63.7454 55.5836 63.6094 55.9235 63.6094H81.4198C86.519 63.6094 90.9723 64.5272 94.7798 66.363C98.6552 68.1307 101.647 70.6463 103.754 73.9099C105.862 77.1734 106.916 80.9468 106.916 85.2302V113.378C106.916 117.661 105.862 121.435 103.754 124.698C101.647 127.962 98.6552 130.512 94.7798 132.347C90.9723 134.115 86.519 134.999 81.4198 134.999H55.9235ZM69.0796 122.149C69.0796 122.489 69.2495 122.659 69.5895 122.659H81.9297C85.0572 122.659 87.5728 121.605 89.4766 119.497C91.4483 117.389 92.4681 114.568 92.5361 111.032V87.5758C92.5361 84.0404 91.5503 81.2188 89.5786 79.1111C87.6748 77.0034 85.0912 75.9496 81.8277 75.9496H69.5895C69.2495 75.9496 69.0796 76.1195 69.0796 76.4595V122.149Z" fill="white"/>
<path d="M13.5003 86.9989V85.4989C13.5003 83.5659 15.0673 81.9989 17.0003 81.9989V81.9989C18.9333 81.9989 20.5003 83.5659 20.5003 85.4989V86.9989C20.5003 93.3501 25.6491 98.4989 32.0003 98.4989H44.5003C46.4333 98.4989 48.0003 100.066 48.0003 101.999V101.999C48.0003 103.932 46.4333 105.499 44.5003 105.499H32.0003C21.7831 105.499 13.5003 97.2161 13.5003 86.9989Z" fill="white"/>
<path d="M83.0003 53.9989C84.9333 53.9989 86.5003 52.4318 86.5003 50.4989V38.9989C86.5003 28.7816 78.2176 20.4989 68.0003 20.4989V20.4989C66.3435 20.4989 65.0003 21.842 65.0003 23.4989V24.4989C65.0003 26.1557 66.3435 27.4989 68.0003 27.4989V27.4989C74.3516 27.4989 79.5003 32.6476 79.5003 38.9989V50.4989C79.5003 52.4318 81.0673 53.9989 83.0003 53.9989V53.9989Z" fill="white"/>
</svg>
