<svg width="282" height="282" viewBox="0 0 282 282" fill="none" xmlns="http://www.w3.org/2000/svg">
<path fill-rule="evenodd" clip-rule="evenodd" d="M247.901 0.453125H33.6049C15.1695 0.453125 0.217771 15.3847 0.192652 33.8201V247.801C0.157003 256.686 3.66132 265.219 9.93118 271.514C16.201 277.809 24.72 281.348 33.6049 281.348H247.901C256.778 281.336 265.285 277.792 271.545 271.498C277.806 265.204 281.304 256.678 281.268 247.801V33.8201C281.243 15.4023 266.319 0.47793 247.901 0.453125ZM121.413 202.771C121.401 205.741 120.207 208.583 118.094 210.671C115.982 212.758 113.125 213.918 110.155 213.894H63.3244C57.1994 213.869 52.2472 208.896 52.2472 202.771V63.4045C52.2472 57.2794 57.1994 52.307 63.3244 52.2822H110.155C116.288 52.3069 121.253 57.2721 121.278 63.4045L121.413 202.771ZM229.484 138.784C229.484 141.758 228.294 144.607 226.178 146.697C224.063 148.787 221.199 149.943 218.226 149.907H171.396C165.263 149.882 160.298 144.917 160.273 138.784V63.4045C160.298 57.2721 165.263 52.3069 171.396 52.2822H218.226C224.351 52.307 229.304 57.2794 229.304 63.4045L229.484 138.784Z" fill="white"/>
</svg>
