<svg width="2140" height="1519" viewBox="0 0 2140 1519" fill="none" xmlns="http://www.w3.org/2000/svg">
<path d="M1654.6 863.101C1556.2 863.101 1464.1 821.401 1380.3 753.501L1400.7 657.701L1401.6 654.201C1419.8 552.201 1477.4 380.901 1654.6 380.901C1787.5 380.901 1895.6 489.201 1895.6 622.201C1895.2 754.801 1787.1 863.101 1654.6 863.101ZM1654.6 136.401C1428.2 136.401 1252.7 283.701 1181.4 525.901C1072.4 362.201 990.003 165.701 941.703 0.201172H698.104V635.001C698.104 760.101 596.204 862.101 471.204 862.101C346.204 862.101 244.404 760.101 244.404 635.001V0.201172H0.703547V635.001C-0.196453 895.001 211.204 1108.4 470.804 1108.4C730.404 1108.4 941.804 895.001 941.804 635.001V528.501C989.204 627.401 1047.2 727.201 1117.7 816.001L968.404 1518.7H1217.9L1326 1009C1420.8 1069.8 1529.8 1107.9 1654.8 1107.9C1922 1107.9 2139.5 888.701 2139.5 621.201C2139.3 354.201 1921.8 136.401 1654.6 136.401Z" fill="white"/>
</svg>
