<svg width="960" height="960" viewBox="0 0 960 960" fill="none" xmlns="http://www.w3.org/2000/svg">
<path fill-rule="evenodd" clip-rule="evenodd" d="M812.071 0H147.929C66.2305 0 0 66.2305 0 147.929V812.071C0 893.767 66.2305 960 147.929 960H812.071C893.767 960 960 893.767 960 812.071V147.929C960 66.2305 893.767 0 812.071 0ZM511.214 672.029H471.945C471.945 672.029 385.303 677.244 308.988 597.79C225.768 511.14 152.278 339.198 152.278 339.198C152.278 339.198 148.04 327.929 152.646 322.474C157.823 316.345 171.912 315.952 171.912 315.952L265.789 315.339C265.789 315.339 274.633 316.813 280.963 321.463C286.182 325.301 289.104 332.47 289.104 332.47C289.104 332.47 304.278 370.844 324.368 405.555C363.586 473.322 381.854 488.142 395.168 480.882C414.571 470.301 408.752 385.088 408.752 385.088C408.752 385.088 409.106 354.162 398.98 340.385C391.143 329.719 376.359 326.599 369.828 325.729C364.544 325.023 373.215 312.762 384.454 307.258C401.347 298.983 431.175 298.515 466.425 298.874C493.889 299.154 501.798 300.868 512.536 303.459C537.452 309.475 536.675 328.75 534.999 370.341C534.498 382.769 533.917 397.189 533.917 413.843C533.917 417.593 533.807 421.59 533.694 425.703C533.111 447.001 532.443 471.377 546.465 480.438C553.655 485.084 571.247 481.13 615.235 406.437C636.08 371.034 651.721 329.412 651.721 329.412C651.721 329.412 655.129 321.99 660.438 318.814C665.866 315.566 673.195 316.563 673.195 316.563L771.981 315.952C771.981 315.952 801.667 312.412 806.47 325.812C811.511 339.876 795.379 372.713 755.021 426.504C716.692 477.59 698.065 496.365 699.815 512.996C701.091 525.119 713.197 536.103 736.395 557.632C785.023 602.77 797.988 626.472 801.066 632.099C801.315 632.554 801.5 632.891 801.633 633.112C823.396 669.198 777.501 672.029 777.501 672.029L689.762 673.255C689.762 673.255 670.907 676.985 646.095 659.946C633.123 651.04 620.44 636.499 608.355 622.644C589.875 601.457 572.794 581.873 558.215 586.498C533.764 594.257 534.532 646.949 534.532 646.949C534.532 646.949 534.71 658.202 529.137 664.198C523.073 670.722 511.214 672.029 511.214 672.029Z" fill="white"/>
</svg>
