<svg width="44" height="44" viewBox="0 0 44 44" fill="none" xmlns="http://www.w3.org/2000/svg">
<path d="M22 43C24.7578 43 27.4885 42.4568 30.0364 41.4015C32.5842 40.3461 34.8992 38.7993 36.8492 36.8492C38.7993 34.8992 40.3461 32.5842 41.4015 30.0364C42.4568 27.4885 43 24.7578 43 22C43 19.2422 42.4568 16.5115 41.4015 13.9636C40.3461 11.4158 38.7993 9.10079 36.8492 7.15076C34.8992 5.20073 32.5842 3.65388 30.0364 2.59853C27.4885 1.54318 24.7578 1 22 1C16.4305 1 11.089 3.21249 7.15076 7.15076C3.21249 11.089 1 16.4305 1 22C1 27.5695 3.21249 32.911 7.15076 36.8492C11.089 40.7875 16.4305 43 22 43Z" fill="white"/>
<path d="M25.3001 35.1294H29.8701V8.85938H23.2101C16.5101 8.85938 12.9901 12.2994 12.9901 17.3594C12.9901 21.3794 14.9201 23.7894 18.3601 26.2394L12.3701 35.1194H17.3401L24.0001 25.1794L21.6801 23.6394C18.8801 21.7394 17.5101 20.2794 17.5101 17.0994C17.5101 14.3094 19.4801 12.4194 23.2301 12.4194H25.2801V35.1194H25.2901L25.3001 35.1294Z" fill="#FC3F1D"/>
</svg>
